<svg width="32" height="32" viewBox="0 0 32 32" xmlns="http://www.w3.org/2000/svg" class="logo"><title>FRLogo</title><g fill="none" fill-rule="evenodd"><path d="M16 0h13.867C31.045 0 32 .955 32 2.133V16c0 8.837-7.163 16-16 16S0 24.837 0 16 7.163 0 16 0z" fill="#7D61DC"></path><path d="M9.156 19.096L8 17.942l1.34-3.045a1.836 1.836 0 0 1 1.674-1.097l1.765-.006c.49-.002.941-.27 1.177-.7l1.056-1.926a5.456 5.456 0 0 1 4.298-2.81l3.96-.355a.67.67 0 0 1 .728.723l-.335 3.98a5.448 5.448 0 0 1-2.814 4.291l-1.929 1.055c-.43.235-.698.686-.7 1.176l-.007 1.762a1.833 1.833 0 0 1-1.097 1.672L14.066 24l-1.154-1.152.213-.747a2.602 2.602 0 0 0-.664-2.554 2.61 2.61 0 0 0-2.558-.663l-.747.212zm9.974-4.721a1.547 1.547 0 1 0 .002-3.095 1.547 1.547 0 0 0-.002 3.095z" fill="#FFF" fill-rule="nonzero"></path></g></svg>